<svg id="svg" version="1.1" xmlns="http://www.w3.org/2000/svg" xmlns:xlink="http://www.w3.org/1999/xlink" width="400" height="428.3975659229209" viewBox="0, 0, 400,428.3975659229209"><g id="svgg"><path id="path0" d="M198.544 41.976 C 197.746 42.317,193.005 45.040,180.075 52.584 C 176.445 54.701,174.817 55.866,174.961 56.242 C 175.169 56.784,177.328 59.974,186.034 72.600 C 188.461 76.120,191.270 80.215,192.277 81.700 C 194.408 84.845,194.489 84.876,195.402 82.900 C 198.115 77.030,200.289 72.396,203.612 65.400 C 204.447 63.640,205.846 60.670,206.721 58.800 C 207.595 56.930,209.064 53.828,209.986 51.907 C 212.135 47.428,212.190 47.562,206.934 44.519 C 202.421 41.905,200.249 41.247,198.544 41.976 M215.057 51.900 C 214.531 52.945,212.383 57.490,210.285 62.000 C 196.964 90.629,197.648 89.373,196.387 87.531 C 194.690 85.052,194.389 85.007,193.341 87.077 C 192.825 88.097,192.320 89.013,192.220 89.113 C 192.020 89.313,190.800 88.201,190.800 87.819 C 190.800 87.688,190.077 86.550,189.192 85.290 C 187.236 82.503,180.101 72.137,176.191 66.400 C 171.759 59.898,170.668 58.400,170.369 58.400 C 170.216 58.400,163.726 62.119,155.946 66.664 C 148.165 71.209,140.810 75.502,139.600 76.205 C 138.390 76.908,134.700 79.064,131.400 80.996 C 128.100 82.928,124.590 84.960,123.600 85.511 C 122.610 86.062,120.468 87.316,118.840 88.297 C 117.213 89.278,115.278 90.422,114.540 90.840 C 111.332 92.659,110.471 93.152,108.264 94.439 C 106.979 95.187,105.359 96.131,104.664 96.535 C 101.990 98.089,87.770 106.463,87.200 106.819 C 86.870 107.025,84.980 108.118,83.000 109.248 C 81.020 110.378,78.815 111.640,78.100 112.051 C 77.385 112.463,76.125 113.179,75.300 113.643 C 74.475 114.106,73.620 114.627,73.400 114.800 C 73.180 114.973,72.325 115.494,71.500 115.957 C 67.619 118.137,66.934 118.539,66.000 119.182 C 65.450 119.560,64.730 119.985,64.400 120.126 C 64.070 120.267,62.900 120.934,61.800 121.609 C 60.700 122.283,59.485 122.938,59.100 123.064 C 58.715 123.190,58.400 123.431,58.400 123.600 C 58.400 123.769,58.085 124.010,57.700 124.136 C 57.315 124.263,56.280 124.795,55.400 125.318 L 53.800 126.271 53.691 134.407 C 53.632 138.881,53.723 142.645,53.894 142.771 C 54.065 142.897,54.711 143.679,55.330 144.509 C 55.948 145.339,56.847 146.426,57.327 146.925 C 57.807 147.423,58.828 148.634,59.594 149.616 C 60.361 150.597,61.201 151.670,61.461 152.000 C 61.721 152.330,63.883 154.966,66.267 157.857 C 68.650 160.748,72.400 165.321,74.600 168.018 C 79.081 173.513,82.510 177.687,90.400 187.252 C 93.370 190.853,96.070 194.137,96.400 194.552 C 96.730 194.966,97.699 196.130,98.554 197.139 C 99.409 198.148,101.929 201.212,104.154 203.947 C 116.089 218.619,124.559 228.902,125.417 229.760 C 126.154 230.497,126.133 230.532,130.888 220.400 C 131.766 218.530,133.165 215.560,133.997 213.800 C 134.829 212.040,136.140 209.250,136.910 207.600 C 137.680 205.950,139.070 202.980,140.000 201.000 C 141.865 197.028,143.649 193.212,145.844 188.500 C 146.639 186.795,148.065 183.780,149.013 181.800 C 152.325 174.886,155.242 168.702,156.059 166.858 C 157.101 164.510,158.618 161.240,160.912 156.400 C 161.902 154.310,163.473 150.980,164.401 149.000 C 165.998 145.597,166.790 143.902,170.248 136.500 C 172.160 132.406,174.590 127.285,177.411 121.400 C 178.677 118.760,180.153 115.610,180.692 114.400 C 181.638 112.277,183.016 109.306,185.796 103.400 C 189.911 94.655,190.738 92.880,191.241 91.700 C 191.546 90.985,191.886 90.403,191.998 90.406 C 192.460 90.420,193.118 91.086,194.066 92.498 C 195.195 94.180,195.326 94.134,196.413 91.678 C 197.543 89.122,197.340 88.919,205.107 100.409 C 205.928 101.623,208.940 106.002,211.800 110.139 C 214.660 114.276,217.270 118.070,217.600 118.570 C 220.871 123.525,224.997 129.426,225.265 129.533 C 225.449 129.607,225.600 129.883,225.600 130.148 C 225.600 130.413,226.133 131.253,226.784 132.015 C 227.435 132.777,227.975 133.610,227.984 133.867 C 227.993 134.123,228.154 134.393,228.343 134.467 C 228.532 134.540,230.327 137.030,232.332 140.000 C 234.338 142.970,236.986 146.840,238.217 148.600 C 239.447 150.360,241.024 152.654,241.719 153.697 C 243.424 156.255,243.116 156.583,248.391 146.600 C 249.204 145.060,250.289 143.080,250.800 142.200 C 251.311 141.320,252.391 139.340,253.200 137.800 C 254.009 136.260,255.089 134.280,255.600 133.400 C 256.111 132.520,257.193 130.540,258.004 129.000 C 258.815 127.460,260.080 125.120,260.815 123.800 C 263.914 118.237,264.429 117.295,265.521 115.200 C 266.151 113.990,267.088 112.280,267.603 111.400 C 268.118 110.520,269.293 108.360,270.215 106.600 C 271.136 104.840,272.484 102.320,273.210 101.000 C 274.784 98.137,275.692 96.468,279.822 88.850 C 280.621 87.376,280.678 87.418,267.679 79.870 C 260.925 75.949,255.130 72.577,254.800 72.376 C 254.081 71.938,241.039 64.345,238.200 62.712 C 237.100 62.079,235.480 61.116,234.600 60.572 C 233.720 60.028,232.730 59.467,232.400 59.324 C 232.070 59.182,231.080 58.593,230.200 58.015 C 229.320 57.438,228.150 56.749,227.600 56.486 C 227.050 56.222,226.330 55.827,226.000 55.609 C 224.905 54.884,216.357 50.000,216.184 50.000 C 216.090 50.000,215.583 50.855,215.057 51.900 M283.707 91.500 C 283.332 92.325,282.732 93.450,282.371 94.000 C 282.011 94.550,280.995 96.350,280.114 98.000 C 277.853 102.233,276.057 105.538,275.006 107.400 C 274.509 108.280,273.382 110.350,272.501 112.000 C 271.206 114.427,263.712 128.201,260.859 133.400 C 260.496 134.060,260.101 134.690,259.980 134.800 C 259.859 134.910,259.274 135.990,258.679 137.200 C 257.647 139.300,256.201 141.979,253.497 146.800 C 252.818 148.010,251.744 149.990,251.111 151.200 C 249.143 154.957,246.611 159.533,246.367 159.771 C 246.239 159.896,245.553 159.189,244.842 158.199 C 243.240 155.968,243.109 155.970,241.834 158.250 C 240.445 160.736,240.377 160.465,243.267 163.949 C 243.728 164.504,245.149 163.221,245.204 162.200 C 245.316 160.124,246.322 160.493,248.226 163.310 C 249.301 164.900,250.290 166.290,250.424 166.400 C 250.558 166.510,251.808 168.310,253.201 170.400 C 254.595 172.490,255.885 174.260,256.068 174.333 C 256.250 174.407,256.400 174.677,256.401 174.933 C 256.401 175.190,256.941 176.030,257.600 176.800 C 258.259 177.570,258.799 178.410,258.799 178.667 C 258.800 178.923,258.951 179.193,259.136 179.267 C 259.322 179.340,261.477 182.370,263.926 186.000 C 266.376 189.630,270.373 195.480,272.809 199.000 C 275.245 202.520,278.587 207.380,280.236 209.800 C 284.092 215.458,291.687 226.533,293.129 228.600 C 293.743 229.480,296.198 233.080,298.585 236.600 C 300.972 240.120,303.257 243.372,303.663 243.826 C 304.068 244.280,304.400 244.806,304.400 244.994 C 304.400 245.183,304.699 245.667,305.064 246.071 C 305.430 246.475,305.925 247.140,306.164 247.548 C 306.404 247.957,308.310 250.770,310.400 253.800 C 312.490 256.830,314.380 259.602,314.600 259.961 C 314.820 260.319,315.495 261.257,316.100 262.044 C 316.705 262.831,317.200 263.669,317.200 263.904 C 317.200 264.140,317.337 264.393,317.505 264.467 C 318.196 264.769,320.836 268.914,320.609 269.339 C 318.084 274.055,318.729 274.345,313.170 266.000 C 310.898 262.590,308.895 259.740,308.719 259.667 C 308.544 259.593,308.400 259.312,308.400 259.042 C 308.400 258.772,308.077 258.202,307.681 257.775 C 307.286 257.349,305.068 254.210,302.752 250.800 C 300.436 247.390,297.484 243.070,296.193 241.200 C 294.902 239.330,292.320 235.550,290.455 232.800 C 288.590 230.050,286.915 227.740,286.732 227.667 C 286.549 227.593,286.400 227.323,286.399 227.067 C 286.399 226.810,285.859 225.970,285.200 225.200 C 284.541 224.430,284.001 223.590,284.001 223.333 C 284.000 223.077,283.850 222.807,283.668 222.733 C 283.368 222.613,278.824 216.163,277.769 214.361 C 277.532 213.956,276.957 213.124,276.490 212.512 C 276.023 211.901,273.967 208.932,271.921 205.915 C 268.367 200.675,261.941 191.290,256.915 184.000 C 255.626 182.130,252.976 178.260,251.025 175.400 C 249.075 172.540,246.667 169.056,245.674 167.657 L 243.868 165.114 243.143 166.057 C 242.744 166.576,241.963 167.900,241.407 169.000 C 240.851 170.100,239.742 172.170,238.942 173.600 C 238.143 175.030,236.974 177.145,236.344 178.300 C 235.715 179.455,234.660 181.390,234.000 182.600 C 233.340 183.810,232.285 185.745,231.655 186.900 C 231.025 188.055,229.834 190.260,229.008 191.800 C 228.183 193.340,227.050 195.410,226.492 196.400 C 225.934 197.390,224.988 199.121,224.389 200.246 C 223.790 201.371,222.603 203.531,221.751 205.046 C 220.899 206.561,219.662 208.834,219.001 210.098 C 218.019 211.977,214.038 219.269,207.372 231.400 C 205.510 234.790,203.400 238.712,201.994 241.400 C 201.189 242.940,200.114 244.920,199.605 245.800 C 198.699 247.366,197.447 249.676,194.565 255.100 C 193.776 256.585,192.991 257.980,192.820 258.200 C 192.649 258.420,191.650 260.220,190.599 262.200 C 189.548 264.180,187.838 267.330,186.800 269.200 C 185.762 271.070,184.137 274.040,183.190 275.800 C 182.243 277.560,180.778 280.260,179.935 281.800 C 179.092 283.340,177.823 285.720,177.116 287.090 C 175.390 290.431,174.450 290.550,172.814 287.638 C 172.338 286.789,171.406 287.358,170.644 288.963 C 169.751 290.846,169.314 290.760,167.400 288.324 C 166.520 287.204,165.364 285.824,164.830 285.256 C 164.297 284.688,163.303 283.499,162.623 282.612 C 161.942 281.725,160.999 280.550,160.527 280.000 C 159.282 278.549,155.228 273.628,153.600 271.591 C 151.989 269.575,150.029 267.242,149.294 266.466 C 149.016 266.171,148.296 265.274,147.694 264.471 C 147.092 263.668,146.219 262.559,145.752 262.006 C 143.178 258.953,140.464 255.618,139.473 254.291 C 138.853 253.461,137.953 252.380,137.473 251.888 C 136.993 251.397,136.108 250.336,135.506 249.532 C 134.904 248.727,134.177 247.829,133.890 247.535 C 133.602 247.241,133.105 246.625,132.784 246.167 C 132.235 245.383,128.796 241.336,127.700 240.183 C 127.006 239.453,127.057 239.157,128.234 237.050 C 129.536 234.721,129.291 234.628,132.600 238.711 C 134.140 240.611,136.669 243.704,138.220 245.583 C 145.907 254.898,151.507 261.723,159.709 271.771 C 160.979 273.327,162.779 275.485,163.709 276.566 C 164.639 277.647,165.657 278.907,165.971 279.366 C 166.285 279.825,167.095 280.846,167.771 281.634 C 168.447 282.423,169.612 283.830,170.359 284.761 C 171.947 286.737,172.062 286.682,174.040 283.000 C 174.749 281.680,175.822 279.700,176.425 278.600 C 191.395 251.266,196.541 241.787,198.572 237.800 C 199.245 236.480,199.901 235.310,200.030 235.200 C 200.159 235.090,200.984 233.650,201.863 232.000 C 203.428 229.065,217.571 203.079,219.453 199.681 C 219.976 198.736,221.439 196.072,222.702 193.760 C 223.966 191.448,225.368 188.892,225.818 188.078 C 226.268 187.265,227.348 185.263,228.218 183.628 C 229.088 181.994,230.371 179.654,231.068 178.428 C 231.765 177.203,232.522 175.804,232.751 175.320 C 233.638 173.436,238.962 163.743,239.661 162.738 C 240.068 162.154,240.400 161.301,240.400 160.841 C 240.400 160.083,232.916 148.550,231.141 146.574 C 230.734 146.120,230.398 145.580,230.396 145.374 C 230.394 145.168,229.809 144.255,229.096 143.344 C 228.383 142.433,226.413 139.643,224.718 137.144 C 223.022 134.645,220.761 131.340,219.693 129.800 C 218.625 128.260,216.033 124.480,213.934 121.400 C 211.834 118.320,209.549 114.990,208.854 114.000 C 208.160 113.010,205.948 109.770,203.938 106.800 C 201.929 103.830,200.131 101.340,199.942 101.267 C 199.754 101.193,199.600 100.923,199.599 100.667 C 199.599 100.410,199.059 99.570,198.400 98.800 C 197.741 98.030,197.201 97.266,197.201 97.103 C 197.200 96.711,195.531 94.800,195.190 94.800 C 194.901 94.800,194.497 95.640,183.053 120.071 C 178.758 129.239,175.066 137.069,174.850 137.471 C 174.633 137.872,173.752 139.730,172.892 141.600 C 170.050 147.783,148.329 194.107,145.942 199.078 C 144.654 201.761,143.600 204.037,143.600 204.136 C 143.600 204.236,142.160 207.313,140.400 210.975 C 138.640 214.637,137.200 217.699,137.200 217.779 C 137.200 217.912,133.148 226.578,130.471 232.172 L 129.335 234.545 128.258 233.336 C 127.666 232.672,126.948 231.808,126.662 231.417 C 126.193 230.776,126.030 230.928,124.998 232.970 L 123.853 235.233 123.026 234.313 C 122.572 233.807,121.492 232.494,120.626 231.396 C 119.760 230.298,118.645 228.950,118.149 228.400 C 117.653 227.850,115.846 225.690,114.133 223.600 C 112.420 221.510,110.923 219.710,110.807 219.600 C 110.691 219.490,110.104 218.741,109.504 217.935 C 108.903 217.129,108.183 216.229,107.904 215.935 C 107.624 215.641,106.889 214.770,106.270 214.000 C 105.652 213.230,104.624 211.970,103.986 211.200 C 102.010 208.815,92.514 197.208,89.096 193.000 C 87.309 190.800,85.566 188.730,85.223 188.400 C 84.881 188.069,83.972 186.989,83.206 186.000 C 81.130 183.322,81.332 183.570,74.577 175.400 C 73.668 174.300,72.048 172.320,70.977 171.000 C 69.907 169.680,66.587 165.630,63.600 162.000 C 60.613 158.370,57.294 154.320,56.226 153.000 C 55.157 151.680,54.129 150.540,53.941 150.467 C 53.753 150.393,53.600 183.545,53.600 224.137 L 53.600 297.941 54.700 298.505 C 55.305 298.816,56.450 299.442,57.245 299.897 C 58.040 300.352,59.120 300.967,59.645 301.262 C 60.170 301.558,60.690 301.890,60.800 302.000 C 60.910 302.110,61.430 302.442,61.955 302.738 C 64.403 304.116,65.553 304.779,67.518 305.944 C 68.682 306.635,69.807 307.200,70.018 307.200 C 70.228 307.200,70.400 307.380,70.400 307.600 C 70.400 307.820,70.562 308.000,70.759 308.000 C 70.957 308.000,72.331 308.737,73.812 309.637 C 75.294 310.537,77.068 311.596,77.753 311.990 C 78.439 312.384,80.431 313.529,82.181 314.535 C 85.698 316.558,85.956 316.532,87.051 314.045 C 87.401 313.250,88.368 311.160,89.201 309.400 C 90.034 307.640,91.436 304.670,92.316 302.800 C 93.197 300.930,94.836 297.470,95.958 295.111 C 97.081 292.752,98.000 290.736,98.000 290.631 C 98.000 290.526,99.184 287.956,100.631 284.920 C 104.667 276.454,105.807 274.038,107.204 271.000 C 107.911 269.460,109.210 266.670,110.090 264.800 C 110.970 262.930,112.320 260.050,113.090 258.400 C 113.860 256.750,115.171 253.960,116.003 252.200 C 116.835 250.440,118.229 247.470,119.100 245.600 C 119.972 243.730,121.386 240.711,122.242 238.892 L 123.800 235.584 125.300 237.277 C 127.363 239.606,128.131 237.229,119.190 256.200 C 117.489 259.809,115.242 264.634,113.601 268.200 C 112.994 269.520,111.780 272.130,110.903 274.000 C 104.272 288.145,99.989 297.263,98.151 301.150 C 96.968 303.652,96.000 305.747,96.000 305.805 C 96.000 305.863,94.650 308.734,93.000 312.187 C 91.350 315.639,90.000 318.609,90.000 318.786 C 90.000 318.963,94.725 321.856,100.500 325.215 C 106.275 328.573,111.810 331.813,112.800 332.414 C 113.790 333.015,115.410 333.958,116.400 334.509 C 117.390 335.061,120.639 336.948,123.621 338.704 C 126.602 340.460,129.842 342.328,130.821 342.857 C 131.799 343.385,133.878 344.583,135.441 345.519 C 138.419 347.303,139.112 347.362,139.846 345.893 C 140.843 343.894,144.015 338.010,147.013 332.600 C 147.988 330.840,148.947 329.040,149.145 328.600 C 149.504 327.802,155.065 317.638,156.805 314.600 C 157.309 313.720,158.386 311.740,159.200 310.200 C 160.013 308.660,161.152 306.590,161.730 305.600 C 162.309 304.610,163.273 302.810,163.872 301.600 C 164.472 300.390,165.061 299.310,165.181 299.200 C 165.407 298.994,166.591 296.828,168.297 293.500 C 169.463 291.228,169.565 291.209,171.094 293.000 C 172.624 294.791,173.046 294.761,173.896 292.800 C 174.864 290.564,175.438 290.777,178.400 294.468 C 179.830 296.250,182.585 299.619,184.521 301.954 C 186.458 304.289,188.331 306.560,188.684 307.000 C 189.037 307.440,189.883 308.447,190.563 309.237 C 191.886 310.774,192.239 311.211,194.406 313.987 C 195.172 314.969,196.366 316.409,197.058 317.187 C 197.751 317.964,198.994 319.500,199.821 320.600 C 200.649 321.700,201.443 322.690,201.586 322.800 C 201.729 322.910,202.126 323.409,202.467 323.909 C 202.808 324.408,203.698 325.488,204.444 326.309 C 205.190 327.129,206.292 328.459,206.894 329.265 C 207.496 330.071,208.219 330.971,208.502 331.265 C 209.144 331.933,212.933 336.462,214.800 338.793 C 215.570 339.754,216.796 341.274,217.525 342.170 C 218.253 343.067,219.063 344.073,219.325 344.406 C 220.790 346.275,223.469 349.482,223.997 350.000 C 224.334 350.330,225.099 351.259,225.698 352.065 C 226.298 352.871,227.016 353.771,227.294 354.065 C 227.572 354.359,228.307 355.279,228.927 356.109 C 229.547 356.939,230.447 358.020,230.927 358.512 C 231.675 359.277,233.652 361.750,234.446 362.912 C 234.757 363.367,239.000 361.290,242.000 359.214 C 242.550 358.834,243.990 357.976,245.200 357.309 C 247.204 356.205,249.508 354.866,252.340 353.162 C 252.923 352.811,255.110 351.531,257.200 350.317 C 288.802 331.962,285.257 334.306,287.325 330.400 C 288.510 328.163,297.713 311.260,301.537 304.300 C 304.123 299.591,305.338 297.357,306.158 295.800 C 306.621 294.920,307.091 294.110,307.202 294.000 C 307.314 293.890,307.964 292.720,308.646 291.400 C 310.065 288.658,311.908 285.246,313.077 283.197 C 313.518 282.425,314.733 280.175,315.778 278.197 C 318.389 273.256,318.354 273.268,320.510 276.516 C 321.206 277.564,322.015 277.096,322.805 275.187 C 323.565 273.354,324.240 273.731,326.596 277.300 C 328.720 280.516,332.600 286.179,334.889 289.400 C 335.514 290.280,337.385 293.011,339.046 295.470 C 340.707 297.928,342.290 300.026,342.565 300.131 C 343.368 300.439,347.178 298.030,347.411 297.067 C 347.794 295.479,347.419 230.997,347.026 231.059 C 346.821 231.091,346.177 231.991,345.594 233.059 C 345.012 234.127,339.960 243.415,334.368 253.699 C 323.978 272.805,323.660 273.274,322.481 271.203 C 322.107 270.544,321.665 270.004,321.500 270.003 C 321.066 269.999,321.131 267.830,321.577 267.380 C 321.785 267.171,322.566 265.830,323.313 264.400 C 325.037 261.101,327.400 256.721,328.708 254.400 C 329.266 253.410,330.207 251.700,330.800 250.600 C 331.393 249.500,332.334 247.790,332.892 246.800 C 333.450 245.810,334.583 243.740,335.408 242.200 C 336.234 240.660,337.425 238.455,338.055 237.300 C 338.685 236.145,339.740 234.210,340.400 233.000 C 341.060 231.790,342.140 229.810,342.800 228.600 C 343.460 227.390,344.552 225.369,345.226 224.109 C 345.901 222.849,346.666 221.562,346.926 221.248 C 347.285 220.815,347.400 209.286,347.400 173.658 L 347.400 126.639 345.831 125.573 C 344.969 124.987,343.619 124.169,342.831 123.754 C 342.044 123.339,340.680 122.527,339.800 121.948 C 338.920 121.370,337.300 120.406,336.200 119.806 C 333.723 118.456,331.430 117.169,329.600 116.100 C 328.830 115.651,322.440 111.910,315.400 107.788 C 308.360 103.665,300.890 99.306,298.800 98.100 C 296.710 96.894,294.716 95.658,294.369 95.353 C 294.021 95.049,293.625 94.800,293.488 94.800 C 293.351 94.800,291.360 93.720,289.064 92.400 C 284.125 89.560,284.554 89.632,283.707 91.500 M319.088 281.700 C 318.110 283.515,316.881 285.810,316.355 286.800 C 315.830 287.790,315.310 288.690,315.200 288.800 C 315.090 288.910,314.483 289.990,313.851 291.200 C 313.219 292.410,312.245 294.210,311.686 295.200 C 311.128 296.190,310.006 298.260,309.191 299.800 C 308.377 301.340,307.125 303.680,306.408 305.000 C 305.691 306.320,304.592 308.348,303.965 309.507 C 303.339 310.666,302.260 312.646,301.568 313.907 C 300.875 315.168,299.872 317.010,299.339 318.000 C 298.805 318.990,297.569 321.240,296.592 323.000 C 294.507 326.754,293.932 328.003,294.087 328.441 C 294.170 328.676,314.437 317.107,320.800 313.193 C 321.301 312.884,331.134 307.239,335.445 304.784 C 339.045 302.735,339.027 303.439,335.600 298.656 C 334.060 296.507,332.800 294.642,332.800 294.512 C 332.800 294.382,332.329 293.659,331.754 292.905 C 331.179 292.151,329.413 289.614,327.829 287.267 C 320.679 276.675,321.510 277.204,319.088 281.700 M171.930 296.500 C 171.621 296.995,170.763 298.570,170.022 300.000 C 169.282 301.430,168.344 303.078,167.938 303.662 C 167.532 304.246,167.200 304.837,167.200 304.976 C 167.200 305.116,165.063 309.138,162.451 313.915 C 159.839 318.692,156.936 324.040,155.999 325.800 C 155.063 327.560,154.026 329.435,153.695 329.967 C 153.364 330.499,152.466 332.119,151.700 333.567 C 150.934 335.015,149.850 337.010,149.292 338.000 C 148.175 339.983,146.943 342.245,144.484 346.829 L 142.860 349.859 150.930 354.579 C 163.498 361.931,171.283 366.400,171.520 366.400 C 171.639 366.400,172.021 366.651,172.369 366.958 C 172.716 367.265,175.340 368.861,178.200 370.505 C 181.060 372.148,186.730 375.446,190.800 377.833 C 201.435 384.069,199.103 384.639,223.893 369.739 C 225.484 368.783,226.883 368.000,227.002 368.000 C 227.562 368.000,230.400 365.836,230.400 365.409 C 230.400 365.143,229.545 363.936,228.500 362.729 C 227.455 361.521,224.800 358.315,222.600 355.604 C 220.400 352.893,217.958 349.938,217.173 349.038 C 216.387 348.137,214.148 345.420,212.197 343.000 C 210.245 340.580,207.737 337.504,206.624 336.164 C 205.511 334.824,202.260 330.874,199.400 327.387 C 196.540 323.900,193.295 319.957,192.190 318.624 C 191.084 317.291,188.567 314.220,186.595 311.800 C 184.624 309.380,182.781 307.159,182.499 306.865 C 182.218 306.571,181.497 305.671,180.896 304.865 C 180.296 304.059,179.711 303.310,179.597 303.200 C 179.483 303.090,178.582 302.010,177.596 300.800 C 176.610 299.590,175.309 298.060,174.704 297.400 C 174.099 296.740,173.603 296.065,173.602 295.900 C 173.598 295.244,172.459 295.653,171.930 296.500 " stroke="none" fill="#343c44" fill-rule="evenodd"></path><path id="path1" d="M0.000 214.000 L 0.000 428.000 200.000 428.000 L 400.000 428.000 400.000 214.000 L 400.000 0.000 200.000 0.000 L 0.000 0.000 0.000 214.000 M206.934 44.519 C 212.190 47.562,212.135 47.428,209.986 51.907 C 209.064 53.828,207.595 56.930,206.721 58.800 C 205.846 60.670,204.447 63.640,203.612 65.400 C 200.289 72.396,198.115 77.030,195.402 82.900 C 194.489 84.876,194.408 84.845,192.277 81.700 C 191.270 80.215,188.461 76.120,186.034 72.600 C 177.328 59.974,175.169 56.784,174.961 56.242 C 174.750 55.693,175.499 55.226,191.544 45.909 C 200.685 40.601,200.239 40.642,206.934 44.519 M220.877 52.606 C 223.365 54.039,225.670 55.390,226.000 55.609 C 226.330 55.827,227.050 56.222,227.600 56.486 C 228.150 56.749,229.320 57.438,230.200 58.015 C 231.080 58.593,232.070 59.182,232.400 59.324 C 232.730 59.467,233.720 60.028,234.600 60.572 C 235.480 61.116,237.100 62.079,238.200 62.712 C 241.039 64.345,254.081 71.938,254.800 72.376 C 255.130 72.577,260.925 75.949,267.679 79.870 C 280.678 87.418,280.621 87.376,279.822 88.850 C 275.692 96.468,274.784 98.137,273.210 101.000 C 272.484 102.320,271.136 104.840,270.215 106.600 C 269.293 108.360,268.118 110.520,267.603 111.400 C 267.088 112.280,266.151 113.990,265.521 115.200 C 264.429 117.295,263.914 118.237,260.815 123.800 C 260.080 125.120,258.815 127.460,258.004 129.000 C 257.193 130.540,256.111 132.520,255.600 133.400 C 255.089 134.280,254.009 136.260,253.200 137.800 C 252.391 139.340,251.311 141.320,250.800 142.200 C 250.289 143.080,249.204 145.060,248.391 146.600 C 243.116 156.583,243.424 156.255,241.719 153.697 C 241.024 152.654,239.447 150.360,238.217 148.600 C 236.986 146.840,234.338 142.970,232.332 140.000 C 230.327 137.030,228.532 134.540,228.343 134.467 C 228.154 134.393,227.993 134.123,227.984 133.867 C 227.975 133.610,227.435 132.777,226.784 132.015 C 226.133 131.253,225.600 130.413,225.600 130.148 C 225.600 129.883,225.449 129.607,225.265 129.533 C 224.997 129.426,220.871 123.525,217.600 118.570 C 217.270 118.070,214.660 114.276,211.800 110.139 C 208.940 106.002,205.928 101.623,205.107 100.409 C 197.340 88.919,197.543 89.122,196.413 91.678 C 195.326 94.134,195.195 94.180,194.066 92.498 C 193.118 91.086,192.460 90.420,191.998 90.406 C 191.886 90.403,191.546 90.985,191.241 91.700 C 190.738 92.880,189.911 94.655,185.796 103.400 C 183.016 109.306,181.638 112.277,180.692 114.400 C 180.153 115.610,178.677 118.760,177.411 121.400 C 174.590 127.285,172.160 132.406,170.248 136.500 C 166.790 143.902,165.998 145.597,164.401 149.000 C 163.473 150.980,161.902 154.310,160.912 156.400 C 158.618 161.240,157.101 164.510,156.059 166.858 C 155.242 168.702,152.325 174.886,149.013 181.800 C 148.065 183.780,146.639 186.795,145.844 188.500 C 143.649 193.212,141.865 197.028,140.000 201.000 C 139.070 202.980,137.680 205.950,136.910 207.600 C 136.140 209.250,134.829 212.040,133.997 213.800 C 133.165 215.560,131.766 218.530,130.888 220.400 C 126.133 230.532,126.154 230.497,125.417 229.760 C 124.559 228.902,116.089 218.619,104.154 203.947 C 101.929 201.212,99.409 198.148,98.554 197.139 C 97.699 196.130,96.730 194.966,96.400 194.552 C 96.070 194.137,93.370 190.853,90.400 187.252 C 82.510 177.687,79.081 173.513,74.600 168.018 C 72.400 165.321,68.650 160.748,66.267 157.857 C 63.883 154.966,61.721 152.330,61.461 152.000 C 61.201 151.670,60.361 150.597,59.594 149.616 C 58.828 148.634,57.807 147.423,57.327 146.925 C 56.847 146.426,55.948 145.339,55.330 144.509 C 54.711 143.679,54.065 142.897,53.894 142.771 C 53.723 142.645,53.632 138.881,53.691 134.407 L 53.800 126.271 55.400 125.318 C 56.280 124.795,57.315 124.263,57.700 124.136 C 58.085 124.010,58.400 123.769,58.400 123.600 C 58.400 123.431,58.715 123.190,59.100 123.064 C 59.485 122.938,60.700 122.283,61.800 121.609 C 62.900 120.934,64.070 120.267,64.400 120.126 C 64.730 119.985,65.450 119.560,66.000 119.182 C 66.934 118.539,67.619 118.137,71.500 115.957 C 72.325 115.494,73.180 114.973,73.400 114.800 C 73.620 114.627,74.475 114.106,75.300 113.643 C 76.125 113.179,77.385 112.463,78.100 112.051 C 78.815 111.640,81.020 110.378,83.000 109.248 C 84.980 108.118,86.870 107.025,87.200 106.819 C 87.770 106.463,101.990 98.089,104.664 96.535 C 105.359 96.131,106.979 95.187,108.264 94.439 C 110.471 93.152,111.332 92.659,114.540 90.840 C 115.278 90.422,117.213 89.278,118.840 88.297 C 120.468 87.316,122.610 86.062,123.600 85.511 C 124.590 84.960,128.100 82.928,131.400 80.996 C 134.700 79.064,138.390 76.908,139.600 76.205 C 140.810 75.502,148.165 71.209,155.946 66.664 C 163.726 62.119,170.216 58.400,170.369 58.400 C 170.668 58.400,171.759 59.898,176.191 66.400 C 180.101 72.137,187.236 82.503,189.192 85.290 C 190.077 86.550,190.800 87.688,190.800 87.819 C 190.800 88.201,192.020 89.313,192.220 89.113 C 192.320 89.013,192.825 88.097,193.341 87.077 C 194.389 85.007,194.690 85.052,196.387 87.531 C 197.648 89.373,196.964 90.629,210.285 62.000 C 214.611 52.701,215.939 50.000,216.184 50.000 C 216.277 50.000,218.389 51.173,220.877 52.606 M289.064 92.400 C 291.360 93.720,293.351 94.800,293.488 94.800 C 293.625 94.800,294.021 95.049,294.369 95.353 C 294.716 95.658,296.710 96.894,298.800 98.100 C 300.890 99.306,308.360 103.665,315.400 107.788 C 322.440 111.910,328.830 115.651,329.600 116.100 C 331.430 117.169,333.723 118.456,336.200 119.806 C 337.300 120.406,338.920 121.370,339.800 121.948 C 340.680 122.527,342.044 123.339,342.831 123.754 C 343.619 124.169,344.969 124.987,345.831 125.573 L 347.400 126.639 347.400 173.658 C 347.400 209.286,347.285 220.815,346.926 221.248 C 346.666 221.562,345.901 222.849,345.226 224.109 C 344.552 225.369,343.460 227.390,342.800 228.600 C 342.140 229.810,341.060 231.790,340.400 233.000 C 339.740 234.210,338.685 236.145,338.055 237.300 C 337.425 238.455,336.234 240.660,335.408 242.200 C 334.583 243.740,333.450 245.810,332.892 246.800 C 332.334 247.790,331.393 249.500,330.800 250.600 C 330.207 251.700,329.266 253.410,328.708 254.400 C 327.400 256.721,325.037 261.101,323.313 264.400 C 322.566 265.830,321.785 267.171,321.577 267.380 C 321.131 267.830,321.066 269.999,321.500 270.003 C 321.665 270.004,322.107 270.544,322.481 271.203 C 323.660 273.274,323.978 272.805,334.368 253.699 C 339.960 243.415,345.012 234.127,345.594 233.059 C 346.177 231.991,346.821 231.091,347.026 231.059 C 347.419 230.997,347.794 295.479,347.411 297.067 C 347.178 298.030,343.368 300.439,342.565 300.131 C 342.290 300.026,340.707 297.928,339.046 295.470 C 337.385 293.011,335.514 290.280,334.889 289.400 C 332.600 286.179,328.720 280.516,326.596 277.300 C 324.240 273.731,323.565 273.354,322.805 275.187 C 322.015 277.096,321.206 277.564,320.510 276.516 C 318.354 273.268,318.389 273.256,315.778 278.197 C 314.733 280.175,313.518 282.425,313.077 283.197 C 311.908 285.246,310.065 288.658,308.646 291.400 C 307.964 292.720,307.314 293.890,307.202 294.000 C 307.091 294.110,306.621 294.920,306.158 295.800 C 305.338 297.357,304.123 299.591,301.537 304.300 C 297.713 311.260,288.510 328.163,287.325 330.400 C 285.318 334.190,287.035 332.986,267.200 344.508 C 263.790 346.489,259.290 349.103,257.200 350.317 C 255.110 351.531,252.923 352.811,252.340 353.162 C 249.508 354.866,247.204 356.205,245.200 357.309 C 243.990 357.976,242.550 358.834,242.000 359.214 C 239.000 361.290,234.757 363.367,234.446 362.912 C 233.652 361.750,231.675 359.277,230.927 358.512 C 230.447 358.020,229.547 356.939,228.927 356.109 C 228.307 355.279,227.572 354.359,227.294 354.065 C 227.016 353.771,226.298 352.871,225.698 352.065 C 225.099 351.259,224.334 350.330,223.997 350.000 C 223.469 349.482,220.790 346.275,219.325 344.406 C 219.063 344.073,218.253 343.067,217.525 342.170 C 216.796 341.274,215.570 339.754,214.800 338.793 C 212.933 336.462,209.144 331.933,208.502 331.265 C 208.219 330.971,207.496 330.071,206.894 329.265 C 206.292 328.459,205.190 327.129,204.444 326.309 C 203.698 325.488,202.808 324.408,202.467 323.909 C 202.126 323.409,201.729 322.910,201.586 322.800 C 201.443 322.690,200.649 321.700,199.821 320.600 C 198.994 319.500,197.751 317.964,197.058 317.187 C 196.366 316.409,195.172 314.969,194.406 313.987 C 192.239 311.211,191.886 310.774,190.563 309.237 C 189.883 308.447,189.037 307.440,188.684 307.000 C 188.331 306.560,186.458 304.289,184.521 301.954 C 182.585 299.619,179.830 296.250,178.400 294.468 C 175.438 290.777,174.864 290.564,173.896 292.800 C 173.046 294.761,172.624 294.791,171.094 293.000 C 169.565 291.209,169.463 291.228,168.297 293.500 C 166.591 296.828,165.407 298.994,165.181 299.200 C 165.061 299.310,164.472 300.390,163.872 301.600 C 163.273 302.810,162.309 304.610,161.730 305.600 C 161.152 306.590,160.013 308.660,159.200 310.200 C 158.386 311.740,157.309 313.720,156.805 314.600 C 155.065 317.638,149.504 327.802,149.145 328.600 C 148.947 329.040,147.988 330.840,147.013 332.600 C 144.015 338.010,140.843 343.894,139.846 345.893 C 139.112 347.362,138.419 347.303,135.441 345.519 C 133.878 344.583,131.799 343.385,130.821 342.857 C 129.842 342.328,126.602 340.460,123.621 338.704 C 120.639 336.948,117.390 335.061,116.400 334.509 C 115.410 333.958,113.790 333.015,112.800 332.414 C 111.810 331.813,106.275 328.573,100.500 325.215 C 94.725 321.856,90.000 318.963,90.000 318.786 C 90.000 318.609,91.350 315.639,93.000 312.187 C 94.650 308.734,96.000 305.863,96.000 305.805 C 96.000 305.747,96.968 303.652,98.151 301.150 C 99.989 297.263,104.272 288.145,110.903 274.000 C 111.780 272.130,112.994 269.520,113.601 268.200 C 115.242 264.634,117.489 259.809,119.190 256.200 C 128.131 237.229,127.363 239.606,125.300 237.277 L 123.800 235.584 122.242 238.892 C 121.386 240.711,119.972 243.730,119.100 245.600 C 118.229 247.470,116.835 250.440,116.003 252.200 C 115.171 253.960,113.860 256.750,113.090 258.400 C 112.320 260.050,110.970 262.930,110.090 264.800 C 109.210 266.670,107.911 269.460,107.204 271.000 C 105.807 274.038,104.667 276.454,100.631 284.920 C 99.184 287.956,98.000 290.526,98.000 290.631 C 98.000 290.736,97.081 292.752,95.958 295.111 C 94.836 297.470,93.197 300.930,92.316 302.800 C 91.436 304.670,90.034 307.640,89.201 309.400 C 88.368 311.160,87.401 313.250,87.051 314.045 C 85.956 316.532,85.698 316.558,82.181 314.535 C 80.431 313.529,78.439 312.384,77.753 311.990 C 77.068 311.596,75.294 310.537,73.812 309.637 C 72.331 308.737,70.957 308.000,70.759 308.000 C 70.562 308.000,70.400 307.820,70.400 307.600 C 70.400 307.380,70.228 307.200,70.018 307.200 C 69.807 307.200,68.682 306.635,67.518 305.944 C 65.553 304.779,64.403 304.116,61.955 302.738 C 61.430 302.442,60.910 302.110,60.800 302.000 C 60.690 301.890,60.170 301.558,59.645 301.262 C 59.120 300.967,58.040 300.352,57.245 299.897 C 56.450 299.442,55.305 298.816,54.700 298.505 L 53.600 297.941 53.600 224.137 C 53.600 183.545,53.753 150.393,53.941 150.467 C 54.129 150.540,55.157 151.680,56.226 153.000 C 57.294 154.320,60.613 158.370,63.600 162.000 C 66.587 165.630,69.907 169.680,70.977 171.000 C 72.048 172.320,73.668 174.300,74.577 175.400 C 81.332 183.570,81.130 183.322,83.206 186.000 C 83.972 186.989,84.881 188.069,85.223 188.400 C 85.566 188.730,87.309 190.800,89.096 193.000 C 92.514 197.208,102.010 208.815,103.986 211.200 C 104.624 211.970,105.652 213.230,106.270 214.000 C 106.889 214.770,107.624 215.641,107.904 215.935 C 108.183 216.229,108.903 217.129,109.504 217.935 C 110.104 218.741,110.691 219.490,110.807 219.600 C 110.923 219.710,112.420 221.510,114.133 223.600 C 115.846 225.690,117.653 227.850,118.149 228.400 C 118.645 228.950,119.760 230.298,120.626 231.396 C 121.492 232.494,122.572 233.807,123.026 234.313 L 123.853 235.233 124.998 232.970 C 126.030 230.928,126.193 230.776,126.662 231.417 C 126.948 231.808,127.666 232.672,128.258 233.336 L 129.335 234.545 130.471 232.172 C 133.148 226.578,137.200 217.912,137.200 217.779 C 137.200 217.699,138.640 214.637,140.400 210.975 C 142.160 207.313,143.600 204.236,143.600 204.136 C 143.600 204.037,144.654 201.761,145.942 199.078 C 148.329 194.107,170.050 147.783,172.892 141.600 C 173.752 139.730,174.633 137.872,174.850 137.471 C 175.066 137.069,178.758 129.239,183.053 120.071 C 194.497 95.640,194.901 94.800,195.190 94.800 C 195.531 94.800,197.200 96.711,197.201 97.103 C 197.201 97.266,197.741 98.030,198.400 98.800 C 199.059 99.570,199.599 100.410,199.599 100.667 C 199.600 100.923,199.754 101.193,199.942 101.267 C 200.131 101.340,201.929 103.830,203.938 106.800 C 205.948 109.770,208.160 113.010,208.854 114.000 C 209.549 114.990,211.834 118.320,213.934 121.400 C 216.033 124.480,218.625 128.260,219.693 129.800 C 220.761 131.340,223.022 134.645,224.718 137.144 C 226.413 139.643,228.383 142.433,229.096 143.344 C 229.809 144.255,230.394 145.168,230.396 145.374 C 230.398 145.580,230.734 146.120,231.141 146.574 C 232.916 148.550,240.400 160.083,240.400 160.841 C 240.400 161.301,240.068 162.154,239.661 162.738 C 238.962 163.743,233.638 173.436,232.751 175.320 C 232.522 175.804,231.765 177.203,231.068 178.428 C 230.371 179.654,229.088 181.994,228.218 183.628 C 227.348 185.263,226.268 187.265,225.818 188.078 C 225.368 188.892,223.966 191.448,222.702 193.760 C 221.439 196.072,219.976 198.736,219.453 199.681 C 217.571 203.079,203.428 229.065,201.863 232.000 C 200.984 233.650,200.159 235.090,200.030 235.200 C 199.901 235.310,199.245 236.480,198.572 237.800 C 196.541 241.787,191.395 251.266,176.425 278.600 C 175.822 279.700,174.749 281.680,174.040 283.000 C 172.062 286.682,171.947 286.737,170.359 284.761 C 169.612 283.830,168.447 282.423,167.771 281.634 C 167.095 280.846,166.285 279.825,165.971 279.366 C 165.657 278.907,164.639 277.647,163.709 276.566 C 162.779 275.485,160.979 273.327,159.709 271.771 C 151.507 261.723,145.907 254.898,138.220 245.583 C 136.669 243.704,134.140 240.611,132.600 238.711 C 129.291 234.628,129.536 234.721,128.234 237.050 C 127.057 239.157,127.006 239.453,127.700 240.183 C 128.796 241.336,132.235 245.383,132.784 246.167 C 133.105 246.625,133.602 247.241,133.890 247.535 C 134.177 247.829,134.904 248.727,135.506 249.532 C 136.108 250.336,136.993 251.397,137.473 251.888 C 137.953 252.380,138.853 253.461,139.473 254.291 C 140.464 255.618,143.178 258.953,145.752 262.006 C 146.219 262.559,147.092 263.668,147.694 264.471 C 148.296 265.274,149.016 266.171,149.294 266.466 C 150.029 267.242,151.989 269.575,153.600 271.591 C 155.228 273.628,159.282 278.549,160.527 280.000 C 160.999 280.550,161.942 281.725,162.623 282.612 C 163.303 283.499,164.297 284.688,164.830 285.256 C 165.364 285.824,166.520 287.204,167.400 288.324 C 169.314 290.760,169.751 290.846,170.644 288.963 C 171.406 287.358,172.338 286.789,172.814 287.638 C 174.450 290.550,175.390 290.431,177.116 287.090 C 177.823 285.720,179.092 283.340,179.935 281.800 C 180.778 280.260,182.243 277.560,183.190 275.800 C 184.137 274.040,185.762 271.070,186.800 269.200 C 187.838 267.330,189.548 264.180,190.599 262.200 C 191.650 260.220,192.649 258.420,192.820 258.200 C 192.991 257.980,193.776 256.585,194.565 255.100 C 197.447 249.676,198.699 247.366,199.605 245.800 C 200.114 244.920,201.189 242.940,201.994 241.400 C 203.400 238.712,205.510 234.790,207.372 231.400 C 214.038 219.269,218.019 211.977,219.001 210.098 C 219.662 208.834,220.899 206.561,221.751 205.046 C 222.603 203.531,223.790 201.371,224.389 200.246 C 224.988 199.121,225.934 197.390,226.492 196.400 C 227.050 195.410,228.183 193.340,229.008 191.800 C 229.834 190.260,231.025 188.055,231.655 186.900 C 232.285 185.745,233.340 183.810,234.000 182.600 C 234.660 181.390,235.715 179.455,236.344 178.300 C 236.974 177.145,238.143 175.030,238.942 173.600 C 239.742 172.170,240.851 170.100,241.407 169.000 C 241.963 167.900,242.744 166.576,243.143 166.057 L 243.868 165.114 245.674 167.657 C 246.667 169.056,249.075 172.540,251.025 175.400 C 252.976 178.260,255.626 182.130,256.915 184.000 C 261.941 191.290,268.367 200.675,271.921 205.915 C 273.967 208.932,276.023 211.901,276.490 212.512 C 276.957 213.124,277.532 213.956,277.769 214.361 C 278.824 216.163,283.368 222.613,283.668 222.733 C 283.850 222.807,284.000 223.077,284.001 223.333 C 284.001 223.590,284.541 224.430,285.200 225.200 C 285.859 225.970,286.399 226.810,286.399 227.067 C 286.400 227.323,286.549 227.593,286.732 227.667 C 286.915 227.740,288.590 230.050,290.455 232.800 C 292.320 235.550,294.902 239.330,296.193 241.200 C 297.484 243.070,300.436 247.390,302.752 250.800 C 305.068 254.210,307.286 257.349,307.681 257.775 C 308.077 258.202,308.400 258.772,308.400 259.042 C 308.400 259.312,308.544 259.593,308.719 259.667 C 308.895 259.740,310.898 262.590,313.170 266.000 C 318.729 274.345,318.084 274.055,320.609 269.339 C 320.836 268.914,318.196 264.769,317.505 264.467 C 317.337 264.393,317.200 264.140,317.200 263.904 C 317.200 263.669,316.705 262.831,316.100 262.044 C 315.495 261.257,314.820 260.319,314.600 259.961 C 314.380 259.602,312.490 256.830,310.400 253.800 C 308.310 250.770,306.404 247.957,306.164 247.548 C 305.925 247.140,305.430 246.475,305.064 246.071 C 304.699 245.667,304.400 245.183,304.400 244.994 C 304.400 244.806,304.068 244.280,303.663 243.826 C 303.257 243.372,300.972 240.120,298.585 236.600 C 296.198 233.080,293.743 229.480,293.129 228.600 C 291.687 226.533,284.092 215.458,280.236 209.800 C 278.587 207.380,275.245 202.520,272.809 199.000 C 270.373 195.480,266.376 189.630,263.926 186.000 C 261.477 182.370,259.322 179.340,259.136 179.267 C 258.951 179.193,258.800 178.923,258.799 178.667 C 258.799 178.410,258.259 177.570,257.600 176.800 C 256.941 176.030,256.401 175.190,256.401 174.933 C 256.400 174.677,256.250 174.407,256.068 174.333 C 255.885 174.260,254.595 172.490,253.201 170.400 C 251.808 168.310,250.558 166.510,250.424 166.400 C 250.290 166.290,249.301 164.900,248.226 163.310 C 246.322 160.493,245.316 160.124,245.204 162.200 C 245.149 163.221,243.728 164.504,243.267 163.949 C 240.377 160.465,240.445 160.736,241.834 158.250 C 243.109 155.970,243.240 155.968,244.842 158.199 C 245.553 159.189,246.239 159.896,246.367 159.771 C 246.611 159.533,249.143 154.957,251.111 151.200 C 251.744 149.990,252.818 148.010,253.497 146.800 C 256.201 141.979,257.647 139.300,258.679 137.200 C 259.274 135.990,259.859 134.910,259.980 134.800 C 260.101 134.690,260.496 134.060,260.859 133.400 C 263.712 128.201,271.206 114.427,272.501 112.000 C 273.382 110.350,274.509 108.280,275.006 107.400 C 276.057 105.538,277.853 102.233,280.114 98.000 C 280.995 96.350,282.011 94.550,282.371 94.000 C 282.732 93.450,283.332 92.325,283.707 91.500 C 284.554 89.632,284.125 89.560,289.064 92.400 M323.374 280.705 C 324.240 281.967,326.245 284.920,327.829 287.267 C 329.413 289.614,331.179 292.151,331.754 292.905 C 332.329 293.659,332.800 294.382,332.800 294.512 C 332.800 294.642,334.060 296.507,335.600 298.656 C 339.027 303.439,339.045 302.735,335.445 304.784 C 331.134 307.239,321.301 312.884,320.800 313.193 C 314.437 317.107,294.170 328.676,294.087 328.441 C 293.932 328.003,294.507 326.754,296.592 323.000 C 297.569 321.240,298.805 318.990,299.339 318.000 C 299.872 317.010,300.875 315.168,301.568 313.907 C 302.260 312.646,303.339 310.666,303.965 309.507 C 304.592 308.348,305.691 306.320,306.408 305.000 C 307.125 303.680,308.377 301.340,309.191 299.800 C 310.006 298.260,311.128 296.190,311.686 295.200 C 312.245 294.210,313.219 292.410,313.851 291.200 C 314.483 289.990,315.090 288.910,315.200 288.800 C 315.310 288.690,315.830 287.790,316.355 286.800 C 321.527 277.054,321.115 277.411,323.374 280.705 M173.602 295.900 C 173.603 296.065,174.099 296.740,174.704 297.400 C 175.309 298.060,176.610 299.590,177.596 300.800 C 178.582 302.010,179.483 303.090,179.597 303.200 C 179.711 303.310,180.296 304.059,180.896 304.865 C 181.497 305.671,182.218 306.571,182.499 306.865 C 182.781 307.159,184.624 309.380,186.595 311.800 C 188.567 314.220,191.084 317.291,192.190 318.624 C 193.295 319.957,196.540 323.900,199.400 327.387 C 202.260 330.874,205.511 334.824,206.624 336.164 C 207.737 337.504,210.245 340.580,212.197 343.000 C 214.148 345.420,216.387 348.137,217.173 349.038 C 217.958 349.938,220.400 352.893,222.600 355.604 C 224.800 358.315,227.455 361.521,228.500 362.729 C 229.545 363.936,230.400 365.143,230.400 365.409 C 230.400 365.836,227.562 368.000,227.002 368.000 C 226.883 368.000,225.484 368.783,223.893 369.739 C 199.103 384.639,201.435 384.069,190.800 377.833 C 186.730 375.446,181.060 372.148,178.200 370.505 C 175.340 368.861,172.716 367.265,172.369 366.958 C 172.021 366.651,171.639 366.400,171.520 366.400 C 171.283 366.400,163.498 361.931,150.930 354.579 L 142.860 349.859 144.484 346.829 C 146.943 342.245,148.175 339.983,149.292 338.000 C 149.850 337.010,150.934 335.015,151.700 333.567 C 152.466 332.119,153.364 330.499,153.695 329.967 C 154.026 329.435,155.063 327.560,155.999 325.800 C 156.936 324.040,159.839 318.692,162.451 313.915 C 165.063 309.138,167.200 305.116,167.200 304.976 C 167.200 304.837,167.532 304.246,167.938 303.662 C 168.344 303.078,169.282 301.430,170.022 300.000 C 172.128 295.932,173.592 294.256,173.602 295.900 " stroke="none" fill="#f4f4f4" fill-rule="evenodd"></path></g></svg>