<?xml version="1.0" standalone="no"?>
<!DOCTYPE svg PUBLIC "-//W3C//DTD SVG 20010904//EN"
 "http://www.w3.org/TR/2001/REC-SVG-20010904/DTD/svg10.dtd">
<svg version="1.0" xmlns="http://www.w3.org/2000/svg"
 width="856.000000pt" height="856.000000pt" viewBox="0 0 856.000000 856.000000"
 preserveAspectRatio="xMidYMid meet">
<metadata>
Created by potrace 1.14, written by Peter Selinger 2001-2017
</metadata>
<g transform="translate(0.000000,856.000000) scale(0.100000,-0.100000)"
fill="#000000" stroke="none">
<path d="M4240 7712 c-20 -9 -131 -71 -248 -137 -164 -93 -211 -124 -207 -136
3 -9 65 -105 138 -214 73 -109 137 -205 142 -213 13 -20 27 -40 41 -55 6 -7
16 -22 23 -35 6 -12 16 -22 21 -22 11 0 48 56 82 123 12 23 26 44 30 45 4 2 8
7 8 12 0 7 130 286 151 323 17 31 89 197 89 206 0 16 -191 121 -217 120 -10 0
-34 -8 -53 -17z m99 -126 c20 -21 23 -32 17 -64 -7 -47 -67 -183 -152 -342
-16 -30 -52 -70 -63 -70 -16 0 -137 155 -179 230 -25 45 -29 58 -19 71 18 24
202 148 276 186 69 35 78 34 120 -11z"/>
<path d="M4575 7514 c-14 -31 -25 -58 -25 -59 0 -2 -22 -49 -49 -106 -49 -105
-83 -180 -101 -221 -6 -13 -14 -30 -19 -38 -10 -16 -21 -46 -20 -56 0 -4 -3
-10 -9 -13 -12 -8 -92 -204 -94 -233 -2 -21 84 -169 169 -290 18 -26 33 -52
33 -57 0 -5 4 -11 8 -13 11 -4 278 -394 479 -698 120 -182 178 -260 193 -260
11 0 103 154 203 340 22 41 51 92 64 112 13 21 23 40 23 43 0 2 24 49 53 102
113 206 354 677 376 734 10 29 30 15 -213 154 -29 17 -63 38 -76 48 -14 9 -27
17 -31 17 -3 0 -94 52 -203 115 -108 63 -201 115 -207 115 -5 0 -9 5 -9 10 0
6 -4 10 -10 10 -12 0 -303 172 -418 246 -45 30 -85 54 -87 54 -3 0 -16 -25
-30 -56z m163 -145 c32 -17 86 -47 122 -67 36 -19 82 -46 102 -59 21 -12 39
-23 42 -23 2 0 52 -29 111 -65 59 -36 109 -65 111 -65 3 0 39 -23 82 -51 42
-28 108 -67 147 -86 74 -38 210 -124 260 -166 l30 -26 -68 -133 c-38 -73 -93
-178 -123 -233 -29 -55 -57 -107 -61 -115 -3 -8 -53 -102 -110 -207 -115 -215
-223 -395 -240 -400 -23 -8 -133 129 -281 350 -40 59 -91 133 -112 165 -22 31
-46 65 -53 76 -6 10 -19 28 -28 40 -46 62 -219 326 -219 335 0 6 -4 11 -8 11
-5 0 -26 33 -47 73 l-38 72 52 125 c65 154 194 416 224 453 28 34 37 34 105
-4z"/>
<path d="M3590 7333 c-36 -20 -128 -72 -205 -116 -77 -43 -160 -91 -185 -105
-25 -14 -174 -101 -333 -194 -158 -92 -289 -168 -292 -168 -2 0 -23 -12 -47
-27 -24 -16 -52 -34 -63 -41 -11 -7 -28 -15 -37 -18 -10 -4 -18 -10 -18 -15 0
-5 -4 -9 -9 -9 -5 0 -86 -45 -179 -100 -94 -55 -175 -100 -181 -100 -6 0 -11
-3 -11 -7 0 -5 -26 -21 -58 -38 -31 -16 -59 -32 -62 -35 -8 -8 -69 -44 -215
-125 -27 -16 -66 -38 -85 -50 -19 -11 -88 -49 -152 -84 -64 -35 -115 -68 -113
-75 2 -6 6 -80 8 -164 5 -157 8 -168 54 -217 10 -11 45 -54 78 -95 33 -41 62
-77 65 -80 3 -3 22 -26 43 -52 21 -26 43 -53 50 -60 7 -7 28 -33 47 -58 19
-25 39 -50 45 -56 5 -6 26 -30 45 -54 29 -36 178 -219 242 -295 9 -11 60 -74
114 -140 54 -66 108 -131 120 -145 12 -14 57 -68 100 -120 43 -52 83 -100 89
-106 5 -7 26 -31 44 -54 19 -23 40 -48 45 -54 6 -6 33 -38 61 -71 27 -33 54
-65 60 -71 5 -6 39 -44 74 -83 35 -40 67 -69 72 -64 11 11 289 572 294 593 1
3 18 39 37 80 89 187 128 273 128 281 0 5 5 9 10 9 6 0 10 5 10 11 0 12 41
103 138 309 104 221 122 261 122 270 0 6 5 10 10 10 6 0 10 6 10 14 0 7 20 54
45 105 25 50 45 93 45 95 0 2 24 55 54 117 29 63 75 159 101 214 44 94 91 194
152 325 88 188 154 320 162 320 5 0 23 -8 40 -17 34 -20 47 -13 55 28 3 18 -4
39 -20 63 -25 37 -43 46 -45 24 -1 -7 -2 -17 -4 -23 -1 -5 -3 -16 -3 -22 -5
-41 -64 28 -234 277 -173 252 -209 299 -233 299 -11 0 -49 -16 -85 -36z m101
-120 c67 -71 250 -339 284 -417 25 -58 24 -63 -37 -196 -20 -41 -52 -111 -72
-155 -20 -44 -46 -97 -57 -117 -11 -21 -21 -41 -21 -45 -1 -5 -20 -48 -44 -98
-134 -287 -282 -605 -304 -657 -5 -13 -14 -30 -19 -38 -5 -8 -21 -42 -36 -75
-29 -63 -81 -173 -171 -364 -30 -62 -54 -117 -54 -122 0 -5 -5 -9 -12 -9 -6 0
-9 -3 -5 -6 3 -3 -12 -40 -33 -82 -21 -43 -55 -113 -75 -157 -145 -308 -253
-506 -277 -504 -7 0 -40 32 -73 70 -33 39 -65 76 -70 82 -9 10 -43 52 -157
192 -138 170 -255 312 -263 321 -5 6 -21 26 -35 44 -14 18 -30 38 -35 44 -14
16 -155 186 -187 227 -14 19 -36 45 -48 59 -12 14 -56 67 -98 119 -43 52 -91
111 -108 130 -77 89 -186 237 -206 279 -15 33 -21 68 -22 118 -1 75 12 114 49
148 27 24 102 76 111 76 4 0 15 6 23 14 9 7 44 29 79 47 35 19 71 39 80 44 9
6 49 28 87 49 39 22 118 68 176 103 59 34 112 63 118 63 6 0 11 4 11 8 0 5 22
19 50 32 27 13 50 26 50 30 0 3 17 14 38 23 21 9 58 30 83 46 73 47 410 241
419 241 5 0 10 3 12 8 2 4 57 38 123 76 102 58 175 100 325 187 14 8 27 16 30
19 3 3 19 12 35 21 17 9 62 34 100 57 39 22 75 41 80 42 6 1 22 11 36 21 24
17 65 37 79 38 3 1 22 -16 41 -36z"/>
<path d="M5975 6723 c-36 -36 -104 -148 -275 -458 -18 -33 -41 -73 -50 -90 -9
-16 -57 -104 -105 -195 -49 -91 -97 -178 -107 -195 -10 -16 -22 -40 -27 -52
-6 -11 -50 -95 -99 -185 -48 -89 -92 -172 -96 -182 -5 -14 2 -30 24 -57 16
-21 30 -40 30 -43 0 -3 63 -96 140 -206 77 -111 140 -205 140 -210 0 -5 4 -10
8 -12 5 -1 46 -59 92 -128 47 -69 88 -126 92 -128 5 -2 8 -7 8 -12 0 -8 165
-249 189 -277 6 -7 11 -15 11 -17 0 -3 27 -44 60 -90 33 -47 60 -87 60 -90 0
-3 7 -14 15 -23 11 -14 150 -212 225 -323 48 -71 241 -339 254 -352 9 -10 16
-21 16 -24 0 -4 20 -31 45 -60 25 -28 45 -56 45 -61 0 -4 9 -14 20 -20 20 -13
21 -13 46 32 53 94 102 180 131 235 51 93 77 140 100 180 29 52 102 187 132
245 14 28 28 52 31 55 3 3 12 18 20 35 8 16 32 61 53 99 l38 70 0 915 c0 731
-3 917 -13 927 -7 6 -132 81 -278 166 -650 380 -857 501 -881 519 -42 29 -74
33 -94 12z m225 -200 c80 -48 153 -92 162 -98 9 -5 61 -34 115 -64 54 -30 100
-57 103 -60 5 -6 21 -15 99 -58 25 -14 53 -32 62 -39 8 -8 18 -14 21 -14 4 0
42 -22 85 -48 43 -27 113 -68 157 -92 90 -49 104 -72 115 -180 5 -53 7 -1439
2 -1560 -1 -19 -1 -43 -1 -52 0 -10 0 -26 0 -35 1 -63 -4 -81 -31 -131 -180
-327 -340 -605 -371 -642 -36 -42 -47 -44 -73 -14 -38 44 -275 384 -275 395 0
5 -4 9 -10 9 -5 0 -10 5 -10 10 0 10 -36 67 -50 80 -14 12 -90 131 -90 139 0
5 -4 11 -8 13 -5 2 -57 75 -117 163 -60 88 -112 164 -117 170 -5 5 -20 28 -35
50 -34 53 -128 189 -170 246 -18 26 -33 51 -33 57 0 6 -4 12 -8 14 -14 6 -294
411 -333 483 -21 39 -39 84 -39 101 0 29 34 121 62 169 6 11 24 45 39 75 14
30 86 162 158 294 72 131 131 242 131 246 0 5 3 10 8 12 4 2 24 37 46 78 56
108 148 264 158 268 4 2 8 9 8 16 0 18 65 86 82 86 7 0 78 -39 158 -87z"/>
<path d="M4168 6607 c-36 -58 -268 -527 -268 -542 0 -2 -26 -59 -59 -126 -32
-68 -70 -149 -84 -179 -13 -30 -46 -100 -72 -155 -26 -55 -64 -136 -85 -180
-21 -44 -72 -151 -114 -239 -42 -87 -76 -159 -76 -161 0 -1 -25 -56 -56 -121
-71 -150 -105 -225 -137 -294 -27 -60 -79 -170 -151 -323 -25 -54 -46 -102
-46 -107 0 -6 -4 -10 -10 -10 -5 0 -10 -6 -10 -13 0 -7 -17 -49 -39 -92 -21
-44 -51 -106 -66 -138 l-27 -57 79 -97 c102 -127 104 -130 149 -184 47 -56 59
-71 104 -129 19 -24 44 -54 55 -66 11 -11 34 -38 50 -59 27 -36 136 -167 239
-289 113 -135 160 -186 170 -183 10 3 170 274 255 432 21 39 62 113 91 165 29
52 68 124 87 159 20 35 44 78 54 95 10 17 28 49 39 71 10 22 32 63 48 90 27
47 123 222 200 365 19 36 70 129 113 208 44 78 79 146 79 151 0 5 3 11 8 13 4
2 27 41 51 88 24 47 48 88 53 91 5 3 10 12 12 20 1 8 9 25 17 39 14 22 151
269 214 385 51 95 69 109 95 75 11 -14 22 -19 34 -14 15 6 18 16 14 61 -6 63
-23 82 -51 52 -10 -10 -20 -19 -23 -19 -10 0 -58 53 -109 120 -28 36 -54 70
-60 76 -11 13 -99 140 -125 180 -34 53 -175 259 -181 264 -3 3 -20 27 -38 54
-18 27 -56 83 -85 125 -29 42 -83 121 -121 176 -74 108 -185 265 -188 265 -1
0 -14 -19 -29 -43z m80 -196 c52 -68 82 -111 82 -120 0 -5 4 -11 8 -13 10 -4
113 -151 262 -373 62 -93 158 -232 212 -307 119 -167 158 -227 158 -246 0 -17
-89 -196 -187 -377 -233 -430 -267 -490 -277 -497 -6 -4 -7 -8 -2 -8 5 0 4 -6
-2 -12 -5 -7 -118 -213 -250 -458 -131 -245 -252 -467 -267 -495 -182 -327
-261 -455 -283 -455 -15 0 -130 113 -217 214 -33 37 -69 78 -80 91 -24 27 -27
30 -138 170 -160 200 -237 306 -237 325 0 5 -4 10 -9 10 -24 0 -17 115 9 140
3 3 34 66 69 140 35 74 82 173 105 220 22 47 39 88 38 93 -1 4 2 7 8 7 5 0 10
5 10 11 0 5 23 58 51 117 73 152 92 196 91 205 -1 4 2 7 8 7 5 0 10 6 10 14 0
7 21 58 46 112 25 55 59 126 74 159 15 33 52 112 83 175 79 166 148 312 197
415 23 50 65 137 92 194 27 57 78 165 112 240 35 75 74 159 86 186 13 28 37
71 54 97 32 50 55 56 84 19z"/>
<path d="M1349 5548 c-4 -18 -3 -2064 0 -2820 l1 -127 68 -40 c37 -21 94 -54
127 -72 33 -18 85 -48 115 -66 30 -18 60 -33 67 -33 6 0 13 -4 15 -8 6 -16
239 -134 254 -128 11 4 80 133 89 166 1 5 26 58 111 237 24 51 44 95 44 97 0
3 22 51 49 108 76 160 137 292 139 301 0 4 12 29 26 55 14 26 44 88 67 137 65
141 103 222 155 330 26 55 47 103 46 108 -1 4 2 7 7 7 5 0 11 9 14 20 5 21 26
19 57 -5 46 -35 67 33 30 94 l-21 33 -23 -21 c-12 -11 -27 -21 -32 -21 -23 0
-138 124 -326 351 -30 37 -360 439 -459 559 -16 19 -56 69 -90 110 -33 41 -80
97 -103 124 -22 27 -47 59 -55 70 -8 12 -17 23 -20 26 -3 3 -24 28 -46 55 -21
28 -42 52 -45 55 -3 3 -59 73 -124 155 -65 83 -122 154 -126 158 -4 5 -9 -2
-11 -15z m326 -533 c64 -77 122 -147 128 -155 7 -8 42 -51 78 -95 37 -44 90
-109 118 -145 29 -35 69 -83 89 -105 21 -22 55 -62 77 -90 22 -27 45 -54 51
-60 6 -5 65 -77 130 -160 121 -153 147 -184 220 -265 63 -69 65 -77 43 -143
-11 -32 -37 -96 -59 -143 -21 -46 -39 -87 -40 -89 0 -3 -21 -48 -45 -101 -25
-53 -45 -98 -45 -101 0 -2 -21 -47 -46 -101 -45 -94 -81 -172 -139 -297 -15
-33 -49 -105 -75 -160 -26 -55 -67 -143 -90 -195 -51 -110 -104 -195 -127
-204 -20 -8 -129 44 -275 131 -62 37 -125 74 -139 83 -66 39 -62 28 -64 156
-15 736 -18 977 -18 1389 -1 585 11 1016 28 1063 6 16 30 -10 200 -213z"/>
<path d="M5129 5191 c-33 -38 -117 -185 -255 -446 -32 -60 -62 -111 -66 -113
-4 -2 -8 -8 -8 -14 0 -6 -45 -93 -100 -194 -55 -101 -100 -187 -100 -193 0 -5
-3 -11 -7 -13 -8 -3 -30 -40 -75 -128 -13 -25 -26 -46 -30 -48 -5 -2 -8 -8 -8
-13 0 -5 -20 -45 -44 -87 -24 -43 -61 -109 -81 -147 -94 -176 -119 -223 -140
-260 -12 -22 -38 -69 -58 -105 -19 -36 -72 -132 -118 -215 -45 -82 -118 -219
-161 -304 -66 -131 -76 -157 -66 -175 6 -11 45 -64 87 -117 42 -52 88 -111
103 -130 14 -19 35 -44 45 -56 10 -12 28 -35 40 -50 21 -28 51 -65 75 -93 7
-8 31 -37 52 -64 22 -28 48 -59 57 -71 9 -11 61 -74 115 -140 54 -66 100 -122
103 -125 3 -3 44 -52 91 -110 46 -58 89 -110 95 -116 5 -6 62 -74 125 -150 63
-76 129 -154 146 -173 l32 -34 68 36 c70 36 376 208 404 227 8 6 26 16 40 23
14 6 69 38 122 69 53 32 101 58 107 58 5 0 11 4 13 8 2 4 26 21 53 36 209 118
206 115 243 187 18 35 49 96 70 134 21 39 64 120 96 180 32 61 69 128 81 150
48 85 150 276 232 435 60 116 103 222 103 254 0 18 -134 242 -160 266 -3 3
-50 73 -105 155 -55 83 -102 152 -105 155 -3 3 -51 73 -107 155 -55 83 -159
236 -231 340 -72 105 -154 225 -184 268 -146 213 -189 276 -218 317 -160 230
-201 288 -240 345 -25 37 -57 80 -71 97 l-26 30 -34 -41z m60 -178 c32 -32
127 -156 197 -258 37 -55 72 -104 76 -110 5 -5 53 -75 108 -155 55 -80 103
-149 108 -155 4 -5 51 -73 104 -150 52 -77 148 -216 212 -308 64 -93 116 -172
116 -177 0 -5 4 -10 8 -12 8 -3 173 -243 181 -263 2 -5 7 -12 11 -15 3 -3 55
-76 113 -162 l107 -156 -56 -109 c-31 -59 -75 -144 -98 -188 -22 -44 -44 -81
-48 -83 -5 -2 -8 -8 -8 -14 0 -6 -29 -63 -64 -127 -35 -64 -80 -147 -101 -186
-21 -38 -42 -75 -47 -82 -5 -7 -18 -27 -27 -45 -75 -142 -151 -256 -198 -299
-47 -42 -158 -119 -172 -119 -5 0 -11 -4 -13 -8 -1 -4 -68 -46 -148 -92 -79
-47 -154 -90 -165 -97 -11 -7 -27 -16 -35 -20 -19 -9 -180 -100 -200 -113 -8
-5 -43 -23 -78 -40 l-63 -31 -27 20 c-15 10 -47 41 -72 69 -47 51 -52 58 -110
131 -19 24 -50 60 -67 80 -18 20 -33 39 -33 43 0 4 -8 15 -18 25 -10 10 -47
54 -83 98 -35 44 -69 87 -76 95 -84 105 -128 158 -142 175 -9 11 -70 85 -136
165 -66 80 -122 147 -125 150 -9 8 -165 203 -182 228 -12 18 -14 32 -7 54 9
31 149 315 231 468 91 169 121 226 161 300 22 41 47 89 57 105 10 17 41 75 70
130 29 55 75 139 102 188 26 48 48 92 48 97 0 6 4 10 9 10 5 0 12 9 16 19 5
18 40 83 148 281 23 41 52 95 65 120 13 25 36 68 51 95 15 28 61 111 101 185
40 74 77 137 82 138 4 2 8 8 8 14 0 14 72 108 82 108 5 0 17 -8 27 -17z"/>
<path d="M7212 3938 c-7 -7 -12 -15 -12 -20 0 -4 -25 -54 -56 -110 -31 -57
-79 -146 -107 -198 -28 -52 -53 -97 -56 -100 -3 -3 -18 -30 -34 -60 -15 -30
-44 -86 -65 -125 -21 -38 -56 -101 -77 -140 -21 -38 -42 -76 -48 -82 -6 -8 -6
-13 0 -13 5 0 15 -10 22 -22 13 -27 20 -37 126 -193 158 -231 228 -315 265
-315 16 0 30 21 44 64 15 44 20 222 19 591 -1 381 -4 735 -7 735 -1 0 -7 -5
-14 -12z m-97 -470 c12 -47 14 -110 14 -328 0 -250 -4 -329 -17 -342 -12 -12
-53 31 -117 122 -68 97 -103 169 -99 200 10 60 181 370 205 370 5 0 11 -10 14
-22z"/>
<path d="M2808 3738 c-10 -12 -18 -25 -18 -29 0 -4 -17 -45 -38 -91 -22 -46
-52 -112 -68 -148 -15 -36 -32 -68 -37 -71 -5 -3 -9 -10 -9 -15 -1 -17 -3 -21
-153 -339 -18 -38 -56 -119 -85 -180 -29 -60 -76 -159 -105 -220 -29 -60 -86
-180 -129 -265 -42 -86 -76 -163 -76 -172 0 -16 100 -98 120 -98 5 0 10 -4 10
-10 0 -5 5 -10 11 -10 6 0 23 -8 37 -19 15 -10 47 -29 72 -43 25 -14 59 -34
77 -44 85 -51 126 -74 134 -74 5 0 9 -4 9 -10 0 -5 4 -10 9 -10 5 0 56 -28
113 -61 106 -64 143 -85 216 -125 117 -66 134 -74 146 -74 13 0 116 161 116
181 0 5 3 9 8 9 4 0 14 15 21 33 8 17 31 61 51 97 20 36 60 108 87 160 82 154
104 194 115 208 6 6 7 12 2 12 -5 0 -4 4 1 8 13 9 19 21 153 272 62 118 58
114 99 89 29 -18 37 -20 48 -8 17 17 21 47 12 76 -12 33 -35 36 -62 7 -13 -14
-29 -23 -34 -20 -6 4 -54 62 -108 129 -53 67 -100 124 -103 127 -3 3 -25 30
-50 60 -25 30 -47 57 -50 60 -3 3 -33 39 -66 80 -32 41 -63 80 -69 86 -17 18
-151 179 -215 258 -26 31 -152 180 -164 193 -8 9 -15 7 -28 -9z m125 -262 c49
-52 159 -180 217 -252 33 -41 164 -199 170 -204 3 -3 28 -32 55 -65 28 -33 57
-68 65 -78 8 -9 32 -45 53 -80 28 -45 37 -70 34 -92 -5 -37 -10 -58 -17 -65
-3 -3 -15 -25 -27 -50 -13 -25 -35 -65 -49 -90 -15 -25 -67 -119 -117 -210
-49 -91 -110 -203 -136 -250 -25 -47 -57 -107 -71 -133 -14 -27 -41 -66 -61
-88 -32 -34 -41 -39 -71 -35 -19 3 -58 18 -87 35 -28 17 -53 31 -55 31 -2 0
-33 17 -67 38 -35 22 -86 51 -114 66 -116 64 -355 210 -389 238 -20 16 -36 38
-36 48 0 32 38 126 121 299 44 90 79 166 79 169 0 3 12 30 26 61 14 31 34 74
44 96 36 77 108 231 148 315 22 47 61 129 85 184 25 54 59 119 76 143 l32 45
27 -18 c15 -9 44 -36 65 -58z"/>
<path d="M6671 3138 c-8 -23 -5 -83 5 -99 9 -15 41 -10 48 7 11 29 6 83 -10
98 -21 22 -33 20 -43 -6z"/>
<path d="M6669 2932 c-19 -31 -45 -77 -57 -102 -13 -25 -39 -74 -58 -110 -66
-120 -279 -505 -289 -522 -30 -52 -93 -176 -100 -197 l-7 -24 43 25 c24 14 96
57 159 95 63 39 210 124 325 190 116 67 230 133 255 147 25 15 60 33 78 41 17
9 32 20 32 26 0 11 -51 89 -73 111 -7 7 -40 51 -72 98 -33 47 -63 87 -67 88
-5 2 -8 8 -8 14 0 10 -108 165 -120 173 -3 2 -22 -22 -41 -53z m97 -190 c63
-87 106 -164 106 -191 0 -13 -10 -33 -23 -43 -46 -37 -184 -124 -219 -138 -19
-8 -55 -28 -80 -46 -46 -32 -87 -47 -94 -35 -11 18 58 172 148 331 76 136 105
180 114 179 4 0 26 -26 48 -57z"/>
<path d="M3682 2548 c-56 -94 -165 -288 -237 -423 -51 -96 -95 -178 -128 -235
-11 -19 -29 -53 -40 -74 -10 -22 -25 -46 -33 -54 -8 -7 -14 -18 -14 -23 0 -5
-18 -38 -40 -74 -41 -67 -59 -115 -43 -115 5 0 126 -68 269 -152 142 -83 275
-160 294 -170 19 -10 42 -22 50 -28 28 -17 242 -140 244 -140 1 0 62 -33 135
-74 l133 -75 37 16 c89 38 306 148 321 163 11 12 60 40 60 35 0 -3 6 -1 13 5
6 6 51 34 100 62 l87 51 -27 36 c-37 51 -156 201 -178 225 -6 6 -68 81 -138
166 -70 85 -139 167 -152 183 -14 15 -25 32 -25 37 0 6 -4 10 -8 10 -4 0 -24
21 -45 48 -20 26 -48 61 -61 77 -14 17 -29 35 -34 40 -4 6 -59 74 -122 151
-63 78 -124 153 -135 166 -60 75 -172 207 -201 236 -22 22 -32 13 -82 -70z
m118 -131 c20 -17 46 -45 59 -62 12 -16 37 -46 54 -65 18 -19 55 -62 82 -95
28 -33 58 -69 67 -80 9 -11 62 -76 118 -145 56 -69 115 -141 131 -160 16 -19
39 -46 50 -60 11 -14 37 -45 57 -69 85 -103 147 -176 152 -181 17 -16 123
-155 140 -183 11 -19 18 -41 15 -49 -7 -18 -249 -159 -393 -230 l-43 -21 -92
48 c-51 27 -119 64 -152 82 -33 19 -72 40 -87 46 -16 6 -28 15 -28 19 0 4 -4
8 -9 8 -9 0 -219 122 -301 174 -177 114 -291 191 -310 211 l-22 23 97 188
c162 313 348 634 369 634 6 0 27 -15 46 -33z"/>
</g>
</svg>
